<svg width="120" height="120" viewBox="0 0 120 120" fill="none" xmlns="http://www.w3.org/2000/svg">
<path d="M68.3058 24.6H81.5526L61.2773 3.271V17.5441C61.2773 21.4103 64.413 24.6 68.3058 24.6Z" fill="white"/>
<path d="M81.7927 55.3911C63.9783 55.3911 49.4883 69.8802 49.4883 87.6955C49.4883 105.51 63.9783 120 81.7927 120C99.6079 120 114.098 105.51 114.098 87.6955C114.098 69.8802 99.6079 55.3911 81.7927 55.3911ZM99.1483 90.4531L83.3069 107.456C82.9014 107.889 82.3337 108.133 81.7121 108.133C81.0905 108.133 80.5494 107.889 80.1438 107.456L64.3299 90.4531C63.5187 89.5879 63.5728 88.2091 64.4379 87.3979C65.3031 86.5868 66.7084 86.6408 67.5196 87.506L79.6302 100.482V69.5827C79.6302 68.3934 80.6034 67.4202 81.7927 67.4202C82.9828 67.4202 83.9561 68.3934 83.9561 69.5827V100.482L96.0126 87.506C96.8238 86.6408 98.1751 86.5868 99.0403 87.3979C99.932 88.2091 99.9595 89.5604 99.1483 90.4531Z" fill="white"/>
<path d="M46.3284 78.3957H22.836C21.6467 78.3957 20.6735 77.4234 20.6735 76.2332C20.6735 75.0439 21.6467 74.0707 22.836 74.0707H47.7612C49.1391 70.5569 50.9775 67.5824 53.2489 64.6088H22.836C21.6467 64.6088 20.6735 63.6365 20.6735 62.4463C20.6735 61.257 21.6467 60.2838 22.836 60.2838H57.3578C63.8452 54.6066 72.442 50.9848 81.8225 50.9848C82.7142 50.9848 83.4448 51.0654 84.5261 51.1469V28.9252H68.3057C62.0343 28.9252 56.9522 23.7891 56.9522 17.5443V0H15.4834C10.1303 0 5.85938 4.37897 5.85938 9.75861V92.2641C5.85938 97.6437 10.1303 101.915 15.4834 101.915H48.0579C46.1929 97.5897 45.1657 92.7237 45.1657 87.6416C45.1382 84.4519 45.5713 81.3693 46.3284 78.3957ZM22.836 46.767H50.2213C51.4105 46.767 52.3837 47.7402 52.3837 48.9304C52.3837 50.1196 51.4105 51.0928 50.2213 51.0928H22.836C21.6467 51.0928 20.6735 50.1196 20.6735 48.9304C20.6735 47.7402 21.6467 46.767 22.836 46.767Z" fill="white"/>
</svg>
