<svg width="16" height="20" viewBox="0 0 16 20" fill="none" xmlns="http://www.w3.org/2000/svg">
<path d="M13.25 14V14.75H14H15C15.1374 14.75 15.1983 14.7714 15.2187 14.7813C15.2286 14.8017 15.25 14.8626 15.25 15C15.25 15.1374 15.2286 15.1983 15.2187 15.2187C15.1983 15.2286 15.1374 15.25 15 15.25H1C0.86263 15.25 0.801684 15.2286 0.781318 15.2187C0.771401 15.1983 0.75 15.1374 0.75 15C0.75 14.8626 0.771401 14.8017 0.781318 14.7813C0.801684 14.7714 0.86263 14.75 1 14.75H2H2.75V14V8.0393C2.75 8.0392 2.75 8.0391 2.75 8.039C2.7505 6.95056 3.08724 5.88886 3.71416 4.9991C4.34114 4.10926 5.22774 3.43486 6.25265 3.06816L6.75 2.89022V2.362V2C6.75 1.66848 6.8817 1.35054 7.11612 1.11612C7.35054 0.881696 7.66848 0.75 8 0.75C8.33152 0.75 8.64946 0.881696 8.88388 1.11612C9.1183 1.35054 9.25 1.66848 9.25 2V2.34V2.87315L9.75354 3.04835C11.7907 3.75715 13.25 5.68632 13.25 7.961V14ZM15.227 14.7863C15.227 14.7863 15.226 14.7857 15.2242 14.7843C15.2262 14.7855 15.2271 14.7862 15.227 14.7863ZM15.2157 14.7758C15.2143 14.774 15.2137 14.773 15.2137 14.773C15.2138 14.7729 15.2145 14.7738 15.2157 14.7758ZM15.2137 15.227C15.2137 15.227 15.2143 15.226 15.2157 15.2242C15.2145 15.2262 15.2138 15.2271 15.2137 15.227ZM15.2242 15.2157C15.226 15.2143 15.227 15.2137 15.227 15.2137C15.2271 15.2138 15.2262 15.2145 15.2242 15.2157ZM0.772966 15.2137C0.773032 15.2137 0.77403 15.2143 0.775765 15.2157C0.773768 15.2145 0.7729 15.2138 0.772966 15.2137ZM0.784281 15.2242C0.785714 15.226 0.786311 15.227 0.786251 15.227C0.786191 15.2271 0.785474 15.2262 0.784281 15.2242ZM0.786251 14.773C0.786311 14.773 0.785715 14.774 0.784282 14.7758C0.785475 14.7738 0.786191 14.7729 0.786251 14.773ZM0.775767 14.7843C0.774031 14.7857 0.773032 14.7863 0.772966 14.7863C0.772901 14.7862 0.77377 14.7855 0.775767 14.7843ZM12 14.75H12.75V14V8C12.75 6.74022 12.2496 5.53204 11.3588 4.64124C10.468 3.75044 9.25978 3.25 8 3.25C6.74022 3.25 5.53204 3.75044 4.64124 4.64124C3.75044 5.53204 3.25 6.74022 3.25 8V14V14.75H4H12ZM7.11612 18.8839C7.07404 18.8418 7.03528 18.797 6.99999 18.75H9.00001C8.96472 18.797 8.92596 18.8418 8.88388 18.8839C8.64946 19.1183 8.33152 19.25 8 19.25C7.66848 19.25 7.35054 19.1183 7.11612 18.8839Z" fill="white" stroke="white" stroke-width="1.5"/>
</svg>
