<svg width="40" height="40" viewBox="0 0 40 40" fill="none" xmlns="http://www.w3.org/2000/svg">
<path d="M19.1673 19.9173H19.9173V19.1673V14.1673H19.9174L19.9172 14.155C19.9168 14.1278 19.9176 14.1057 19.9191 14.0881C19.9398 14.0858 19.9667 14.084 20.0007 14.084C20.0346 14.084 20.0615 14.0858 20.0822 14.0881C20.0837 14.1057 20.0845 14.1278 20.0841 14.155L20.084 14.1549V14.1673V19.1673V19.9173H20.834H25.834C25.8673 19.9173 25.8934 19.9191 25.9132 19.9215C25.9155 19.9413 25.9173 19.9673 25.9173 20.0007C25.9173 20.034 25.9155 20.06 25.9132 20.0798C25.8934 20.0822 25.8673 20.084 25.834 20.084H20.834H20.084V20.834V25.834V25.8424L20.0842 25.8508C20.0847 25.8758 20.0841 25.8965 20.083 25.9132C20.062 25.9156 20.0348 25.9173 20.0007 25.9173C19.9665 25.9173 19.9393 25.9156 19.9183 25.9132C19.9172 25.8965 19.9166 25.8758 19.9171 25.8508L19.9173 25.8424V25.834V20.834V20.084H19.1673H14.1673C14.134 20.084 14.108 20.0822 14.0881 20.0799C14.0858 20.06 14.084 20.0339 14.084 20.0007C14.084 19.9674 14.0858 19.9413 14.0881 19.9214C14.108 19.9191 14.134 19.9173 14.1673 19.9173H19.1673Z" fill="#B0BEC5" stroke="#B0BEC5" stroke-width="1.5"/>
</svg>
