<svg width="20" height="20" viewBox="0 0 20 20" fill="none" xmlns="http://www.w3.org/2000/svg">
<path d="M3.67063 12.9386L7.44563 16.7136C8.99563 18.2636 11.5123 18.2636 13.0706 16.7136L16.729 13.0553C18.279 11.5053 18.279 8.98864 16.729 7.43031L12.9456 3.66364C12.154 2.87197 11.0623 2.44697 9.94563 2.50531L5.77896 2.70531C4.1123 2.78031 2.7873 4.10531 2.70396 5.76364L2.50396 9.93031C2.45396 11.0553 2.87896 12.147 3.67063 12.9386Z" stroke="#607D8B" stroke-linecap="round" stroke-linejoin="round"/>
<path d="M8.11263 10.1882C9.26322 10.1882 10.196 9.25541 10.196 8.10482C10.196 6.95422 9.26322 6.02148 8.11263 6.02148C6.96204 6.02148 6.0293 6.95422 6.0293 8.10482C6.0293 9.25541 6.96204 10.1882 8.11263 10.1882Z" stroke="#607D8B" stroke-linecap="round"/>
<path d="M11.0293 14.3548L14.3626 11.0215" stroke="#607D8B" stroke-miterlimit="10" stroke-linecap="round" stroke-linejoin="round"/>
</svg>
