<svg width="20" height="20" viewBox="0 0 20 20" fill="none" xmlns="http://www.w3.org/2000/svg">
<path d="M10.441 17.0167H5.17435C2.54102 17.0167 1.66602 15.2667 1.66602 13.5084V6.49173C1.66602 3.8584 2.54102 2.9834 5.17435 2.9834H10.441C13.0743 2.9834 13.9493 3.8584 13.9493 6.49173V13.5084C13.9493 16.1417 13.066 17.0167 10.441 17.0167Z" stroke="#607D8B" stroke-linecap="round" stroke-linejoin="round"/>
<path d="M16.2659 14.2501L13.9492 12.6251V7.36678L16.2659 5.74178C17.3992 4.95011 18.3326 5.43344 18.3326 6.82511V13.1751C18.3326 14.5668 17.3992 15.0501 16.2659 14.2501Z" stroke="#607D8B" stroke-linecap="round" stroke-linejoin="round"/>
<path d="M9.58398 9.1665C10.2743 9.1665 10.834 8.60686 10.834 7.9165C10.834 7.22615 10.2743 6.6665 9.58398 6.6665C8.89363 6.6665 8.33398 7.22615 8.33398 7.9165C8.33398 8.60686 8.89363 9.1665 9.58398 9.1665Z" stroke="#607D8B" stroke-linecap="round" stroke-linejoin="round"/>
</svg>
